Coordinates
nRows=257
nColumns=2
inDegrees=yes
endheader
time	ankle_angle_r	
3.42619	 18.661716	
3.45946	 18.695432	
3.49272	 18.714984	
3.52598	 18.721546	
3.55925	 18.721977	
3.59251	 18.718943	
3.62578	 18.717249	
3.65904	 18.721794	
3.6923	 18.730261	
3.72557	 18.739906	
3.75883	 18.749936	
3.7921	 18.760451	
3.82536	 18.777670	
3.85862	 18.802819	
3.89189	 18.823436	
3.92515	 18.833452	
3.95842	 18.840159	
3.99168	 18.846924	
4.02494	 18.851973	
4.05821	 18.854247	
4.09147	 18.852272	
4.12474	 18.849329	
4.158	 18.849412	
4.19126	 18.849590	
4.22453	 18.849841	
4.25779	 18.852792	
4.29106	 18.855105	
4.32432	 18.857641	
4.35758	 18.864116	
4.39085	 18.867969	
4.42411	 18.865563	
4.45738	 18.863609	
4.49064	 18.863913	
4.5239	 18.866586	
4.55717	 18.874046	
4.59043	 18.880229	
4.6237	 18.878762	
4.65696	 18.870378	
4.69022	 18.855517	
4.72349	 18.839763	
4.75675	 18.831792	
4.79002	 18.829591	
4.82328	 18.827196	
4.85654	 18.821456	
4.88981	 18.807706	
4.92307	 18.788105	
4.95634	 18.772074	
4.9896	 18.760447	
5.02286	 18.749091	
5.05613	 18.738607	
5.08939	 18.729134	
5.12266	 18.721748	
5.15592	 18.717506	
5.18918	 18.713153	
5.22245	 18.708992	
5.25571	 18.707975	
5.28898	 18.710843	
5.32224	 18.718689	
5.3555	 18.729018	
5.38877	 18.737395	
5.42203	 18.744309	
5.4553	 18.749001	
5.48856	 18.749697	
5.52182	 18.751245	
5.55509	 18.755553	
5.58835	 18.759106	
5.62162	 18.764147	
5.65488	 18.772726	
5.68814	 18.781565	
5.72141	 18.787745	
5.75467	 18.787578	
5.78794	 18.781877	
5.8212	 18.778622	
5.85446	 18.778914	
5.88773	 18.778252	
5.92099	 18.777293	
5.95426	 18.774759	
5.98752	 18.768466	
6.02078	 18.762655	
6.05405	 18.757879	
6.08731	 18.752232	
6.12058	 18.750513	
6.15384	 18.752638	
6.1871	 18.751882	
6.22037	 18.747537	
6.25363	 18.740588	
6.2869	 18.730719	
6.32016	 18.721580	
6.35342	 18.715350	
6.38669	 18.713404	
6.41995	 18.719084	
6.45322	 18.724402	
6.48648	 18.714976	
6.51974	 18.692855	
6.55301	 18.670135	
6.58627	 18.653470	
6.61954	 18.647637	
6.6528	 18.652440	
6.68606	 18.659991	
6.71933	 18.667070	
6.75259	 18.676299	
6.78586	 18.688820	
6.81912	 18.705403	
6.85238	 18.724105	
6.88565	 18.739706	
6.91891	 18.751532	
6.95218	 18.761919	
6.98544	 18.770683	
7.0187	 18.776955	
7.05197	 18.779594	
7.08523	 18.780262	
7.1185	 18.783985	
7.15176	 18.791004	
7.18502	 18.799788	
7.21829	 18.810753	
7.25155	 18.821038	
7.28482	 18.829081	
7.31808	 18.834673	
7.35134	 18.833888	
7.38461	 18.828530	
7.41787	 18.825951	
7.45114	 18.828007	
7.4844	 18.835226	
7.51766	 18.847675	
7.55093	 18.859456	
7.58419	 18.866399	
7.61746	 18.867327	
7.65072	 18.859998	
7.68398	 18.849038	
7.71725	 18.841764	
7.75051	 18.836977	
7.78378	 18.829927	
7.81704	 18.816148	
7.8503	 18.795626	
7.88357	 18.779598	
7.91683	 18.774725	
7.9501	 18.771368	
7.98336	 18.763668	
8.01662	 18.756559	
8.04989	 18.752772	
8.08315	 18.754398	
8.11642	 18.761175	
8.14968	 18.765036	
8.18294	 18.762510	
8.21621	 18.757425	
8.24947	 18.752727	
8.28274	 18.754739	
8.316	 18.767986	
8.34926	 18.785306	
8.38253	 18.799850	
8.41579	 18.811843	
8.44906	 18.820386	
8.48232	 18.826357	
8.51558	 18.831763	
8.54885	 18.833169	
8.58211	 18.832573	
8.61538	 18.838137	
8.64864	 18.846409	
8.6819	 18.848383	
8.71517	 18.844835	
8.74843	 18.841018	
8.7817	 18.842028	
8.81496	 18.848737	
8.84822	 18.853950	
8.88149	 18.855739	
8.91475	 18.858274	
8.94802	 18.857993	
8.98128	 18.851553	
9.01454	 18.843530	
9.04781	 18.837805	
9.08107	 18.835088	
9.11434	 18.832357	
9.1476	 18.825041	
9.18086	 18.815047	
9.21413	 18.805684	
9.24739	 18.795168	
9.28066	 18.782349	
9.31392	 18.766144	
9.34718	 18.745556	
9.38045	 18.725033	
9.41371	 18.707233	
9.44698	 18.693213	
9.48024	 18.688705	
9.5135	 18.691443	
9.54677	 18.692557	
9.58003	 18.691501	
9.6133	 18.690122	
9.64656	 18.689829	
9.67982	 18.694190	
9.71309	 18.700449	
9.74635	 18.703905	
9.77962	 18.705395	
9.81288	 18.705088	
9.84614	 18.707604	
9.87941	 18.721853	
9.91267	 18.742256	
9.94594	 18.756347	
9.9792	 18.763306	
10.0125	 18.764267	
10.0457	 18.760966	
10.079	 18.761966	
10.1123	 18.767356	
10.1455	 18.770131	
10.1788	 18.771484	
10.212	 18.772357	
10.2453	 18.770524	
10.2786	 18.768606	
10.3118	 18.765751	
10.3451	 18.758331	
10.3784	 18.751990	
10.4116	 18.752218	
10.4449	 18.756372	
10.4782	 18.761527	
10.5114	 18.763224	
10.5447	 18.758417	
10.578	 18.752824	
10.6112	 18.750309	
10.6445	 18.749588	
10.6777	 18.752331	
10.711	 18.756873	
10.7443	 18.756686	
10.7775	 18.749017	
10.8108	 18.732806	
10.8441	 18.711130	
10.8773	 18.694840	
10.9106	 18.687361	
10.9439	 18.683605	
10.9771	 18.684481	
11.0104	 18.688444	
11.0436	 18.688277	
11.0769	 18.685784	
11.1102	 18.684509	
11.1434	 18.681736	
11.1767	 18.680328	
11.21	 18.686300	
11.2432	 18.700153	
11.2765	 18.719129	
11.3098	 18.737084	
11.343	 18.751088	
11.3763	 18.767082	
11.4096	 18.787981	
11.4428	 18.808638	
11.4761	 18.821618	
11.5093	 18.820615	
11.5426	 18.809139	
11.5759	 18.799314	
11.6091	 18.797655	
11.6424	 18.804892	
11.6757	 18.818039	
11.7089	 18.828837	
11.7422	 18.835265	
11.7755	 18.841136	
11.8087	 18.844291	
11.842	 18.844189	
11.8752	 18.843395	
11.9085	 18.835013	
11.9418	 18.814047	
